<svg xmlns="http://www.w3.org/2000/svg" viewBox="0 0 657.05 310.28">
  <g>
    <g>
      <circle cx="62.77" cy="71.34" r="22.86" style="fill: #fff"/>
      <circle cx="634.19" cy="68.23" r="22.86" style="fill: #fff"/>
      <g>
        <line x1="164.96" y1="7.45" x2="217.14" y2="7.45" style="fill: none;stroke: #fff;stroke-linecap: round;stroke-linejoin: round;stroke-width: 11.5953455063974px"/>
        <line x1="191.05" y1="128.8" x2="191.05" y2="7.45" style="fill: none;stroke: #fff;stroke-linecap: round;stroke-linejoin: round;stroke-width: 11.5953455063974px"/>
      </g>
      <g>
        <line x1="456.5" y1="9.11" x2="508.68" y2="9.11" style="fill: none;stroke: #fff;stroke-linecap: round;stroke-linejoin: round;stroke-width: 11.5953455063974px"/>
        <line x1="482.59" y1="130.45" x2="482.59" y2="9.11" style="fill: none;stroke: #fff;stroke-linecap: round;stroke-linejoin: round;stroke-width: 11.5953455063974px"/>
      </g>
      <polyline points="320.53 7.45 320.53 129.21 362.73 129.21" style="fill: none;stroke: #fff;stroke-linecap: round;stroke-linejoin: round;stroke-width: 11.5953455063974px"/>
      <g>
        <line x1="539.28" y1="7.45" x2="539.28" y2="129.21" style="fill: none;stroke: #fff;stroke-linecap: round;stroke-linejoin: round;stroke-width: 11.5953455063974px"/>
        <line x1="556.05" y1="56.6" x2="526.23" y2="86.42" style="fill: none;stroke: #fff;stroke-linecap: round;stroke-linejoin: round;stroke-width: 11.5953455063974px"/>
      </g>
      <polyline points="66.73 8.61 5.8 69.55 65.1 128.85" style="fill: none;stroke: #fff;stroke-linecap: round;stroke-linejoin: round;stroke-width: 11.5953455063974px"/>
      <polyline points="636.06 5.8 573.97 67.89 634.98 128.9" style="fill: none;stroke: #fff;stroke-linecap: round;stroke-linejoin: round;stroke-width: 11.5953455063974px"/>
      <g>
        <polyline points="168.33 129.21 127.31 8.28 86.28 129.21" style="fill: none;stroke: #fff;stroke-linecap: round;stroke-linejoin: round;stroke-width: 11.5953455063974px"/>
        <line x1="105.95" y1="71.23" x2="148.66" y2="71.23" style="fill: none;stroke: #fff;stroke-linecap: round;stroke-linejoin: round;stroke-width: 11.5953455063974px"/>
        <line x1="95.27" y1="102.7" x2="159.34" y2="102.7" style="fill: none;stroke: #fff;stroke-linecap: round;stroke-linejoin: round;stroke-width: 11.5953455063974px"/>
      </g>
      <g>
        <polyline points="299.19 129.21 258.17 8.28 217.14 129.21" style="fill: none;stroke: #fff;stroke-linecap: round;stroke-linejoin: round;stroke-width: 11.5953455063974px"/>
        <line x1="236.81" y1="71.23" x2="279.52" y2="71.23" style="fill: none;stroke: #fff;stroke-linecap: round;stroke-linejoin: round;stroke-width: 11.5953455063974px"/>
        <line x1="226.13" y1="102.7" x2="290.2" y2="102.7" style="fill: none;stroke: #fff;stroke-linecap: round;stroke-linejoin: round;stroke-width: 11.5953455063974px"/>
      </g>
      <g>
        <line x1="401.28" y1="8.28" x2="401.28" y2="130.55" style="fill: none;stroke: #fff;stroke-linecap: round;stroke-linejoin: round;stroke-width: 11.5953455063974px"/>
        <polyline points="439.49 8.28 401.27 71.23 363.06 8.28" style="fill: none;stroke: #fff;stroke-linecap: round;stroke-linejoin: round;stroke-width: 11.5953455063974px"/>
      </g>
    </g>
    <g>
      <circle cx="242.04" cy="244.85" r="22.86" style="fill: #fff"/>
      <circle cx="504.89" cy="279.13" r="22.86" style="fill: #fff"/>
      <polyline points="128.78 179.73 128.78 301.48 170.98 301.48" style="fill: none;stroke: #fff;stroke-linecap: round;stroke-linejoin: round;stroke-width: 11.5953455063974px"/>
      <g>
        <line x1="283.33" y1="181.38" x2="283.33" y2="303.14" style="fill: none;stroke: #fff;stroke-linecap: round;stroke-linejoin: round;stroke-width: 11.5953455063974px"/>
        <g>
          <line x1="337.66" y1="181.38" x2="337.66" y2="303.14" style="fill: none;stroke: #fff;stroke-linecap: round;stroke-linejoin: round;stroke-width: 11.5953455063974px"/>
          <line x1="283.33" y1="215.34" x2="337.66" y2="215.34" style="fill: none;stroke: #fff;stroke-linecap: round;stroke-linejoin: round;stroke-width: 11.5953455063974px"/>
          <line x1="283.33" y1="245.16" x2="337.66" y2="245.16" style="fill: none;stroke: #fff;stroke-linecap: round;stroke-linejoin: round;stroke-width: 11.5953455063974px"/>
        </g>
      </g>
      <g>
        <g>
          <polyline points="422.95 182.21 380.39 182.21 380.39 299.47 422.95 299.47" style="fill: none;stroke: #fff;stroke-linecap: round;stroke-linejoin: round;stroke-width: 11.5953455063974px"/>
          <path d="M1016,610.19" transform="translate(-627.49 -394.85)" style="fill: none;stroke: #fff;stroke-linecap: round;stroke-linejoin: round;stroke-width: 11.5953455063974px"/>
          <path d="M1044.64,610.19" transform="translate(-627.49 -394.85)" style="fill: none;stroke: #fff;stroke-linecap: round;stroke-linejoin: round;stroke-width: 11.5953455063974px"/>
          <path d="M1016,621" transform="translate(-627.49 -394.85)" style="fill: none;stroke: #fff;stroke-linecap: round;stroke-linejoin: round;stroke-width: 11.5953455063974px"/>
          <path d="M1044.64,621" transform="translate(-627.49 -394.85)" style="fill: none;stroke: #fff;stroke-linecap: round;stroke-linejoin: round;stroke-width: 11.5953455063974px"/>
        </g>
        <line x1="381.07" y1="213.69" x2="435.39" y2="213.69" style="fill: none;stroke: #fff;stroke-linecap: round;stroke-linejoin: round;stroke-width: 11.5953455063974px"/>
        <line x1="381.07" y1="243.5" x2="435.39" y2="243.5" style="fill: none;stroke: #fff;stroke-linecap: round;stroke-linejoin: round;stroke-width: 11.5953455063974px"/>
      </g>
      <polyline points="471.81 301.48 471.81 180.4 504.94 212.86 537.86 180.4 537.86 301.48" style="fill: none;stroke: #fff;stroke-linecap: round;stroke-linejoin: round;stroke-width: 11.5953455063974px"/>
      <polyline points="471.81 211.87 504.94 244.33 537.86 211.87" style="fill: none;stroke: #fff;stroke-linecap: round;stroke-linejoin: round;stroke-width: 11.5953455063974px"/>
      <polyline points="242.22 181.38 180.13 243.48 241.14 304.48" style="fill: none;stroke: #fff;stroke-linecap: round;stroke-linejoin: round;stroke-width: 11.5953455063974px"/>
      <g>
        <polyline points="97.51 301.48 56.48 180.56 15.45 301.48" style="fill: none;stroke: #fff;stroke-linecap: round;stroke-linejoin: round;stroke-width: 11.5953455063974px"/>
        <line x1="35.12" y1="243.5" x2="77.84" y2="243.5" style="fill: none;stroke: #fff;stroke-linecap: round;stroke-linejoin: round;stroke-width: 11.5953455063974px"/>
        <line x1="24.45" y1="274.98" x2="88.52" y2="274.98" style="fill: none;stroke: #fff;stroke-linecap: round;stroke-linejoin: round;stroke-width: 11.5953455063974px"/>
      </g>
      <g>
        <line x1="607.08" y1="182.21" x2="607.08" y2="304.48" style="fill: none;stroke: #fff;stroke-linecap: round;stroke-linejoin: round;stroke-width: 11.5953455063974px"/>
        <polyline points="645.29 182.21 607.08 245.16 568.87 182.21" style="fill: none;stroke: #fff;stroke-linecap: round;stroke-linejoin: round;stroke-width: 11.5953455063974px"/>
      </g>
    </g>
  </g>
</svg>
