<svg xmlns="http://www.w3.org/2000/svg" viewBox="0 0 160.2 41.9">
  <g>
    <path d="M711.43,498.57l-8.1,14a1.07,1.07,0,0,0,.93,1.61h16.21a1.07,1.07,0,0,0,.93-1.61l-8.1-14A1.08,1.08,0,0,0,711.43,498.57Z" transform="translate(-573.99 -495.49)" style="fill: #fff"/>
    <path d="M633.71,507.54V498a1.07,1.07,0,0,1,1.08-1.07h2.71a1.07,1.07,0,0,1,1.07,1.07v9.42a2.68,2.68,0,1,0,5.35,0V498A1.07,1.07,0,0,1,645,497h2.71a1.07,1.07,0,0,1,1.07,1.07v9.51c0,4.25-3.13,7.12-7.53,7.12S633.71,511.79,633.71,507.54Z" transform="translate(-573.99 -495.49)" style="fill: #fff"/>
    <path d="M665.33,510.94v2.2a1.08,1.08,0,0,1-1.08,1.08h-8.81a1.08,1.08,0,0,1-1.08-1.08V498a1.08,1.08,0,0,1,1.08-1.07h2.67a1.07,1.07,0,0,1,1.07,1.07v10.76a1.08,1.08,0,0,0,1.08,1.08h4A1.08,1.08,0,0,1,665.33,510.94Z" transform="translate(-573.99 -495.49)" style="fill: #fff"/>
    <path d="M679.6,501.24h-2.54a1.07,1.07,0,0,0-1.07,1.08v10.82a1.08,1.08,0,0,1-1.08,1.08h-2.62a1.08,1.08,0,0,1-1.08-1.08V502.32a1.08,1.08,0,0,0-1.08-1.08H667.6a1.08,1.08,0,0,1-1.08-1.08V498A1.07,1.07,0,0,1,667.6,497h12a1.08,1.08,0,0,1,1.08,1.07v2.13A1.08,1.08,0,0,1,679.6,501.24Z" transform="translate(-573.99 -495.49)" style="fill: #fff"/>
    <path d="M691.05,508.94h0A1.08,1.08,0,0,0,690,510v3.12a1.08,1.08,0,0,1-1.08,1.08h-2.6a1.08,1.08,0,0,1-1.08-1.08V498a1.08,1.08,0,0,1,1.08-1.07h6.41c3.72,0,6.42,2.5,6.42,6.11a5.55,5.55,0,0,1-2,4.36,1.08,1.08,0,0,0-.27,1.35l2.1,3.85a1.08,1.08,0,0,1-1,1.59h-2.85a1.09,1.09,0,0,1-.95-.57L692,509.51A1.08,1.08,0,0,0,691.05,508.94ZM690,503.86a1.07,1.07,0,0,0,1.08,1.07h1.09a1.89,1.89,0,1,0,0-3.75h-1.09a1.08,1.08,0,0,0-1.08,1.08Z" transform="translate(-573.99 -495.49)" style="fill: #fff"/>
  </g>
  <g>
    <path d="M643.82,535.29l8.11-14a1.08,1.08,0,0,0-.94-1.62h-16.2a1.08,1.08,0,0,0-.93,1.62l8.1,14A1.07,1.07,0,0,0,643.82,535.29Z" transform="translate(-573.99 -495.49)" style="fill: #fff"/>
    <path d="M656.89,519.64h2.66a1.08,1.08,0,0,1,1.08,1.08v15.11a1.07,1.07,0,0,1-1.08,1.07h-2.66a1.07,1.07,0,0,1-1.08-1.07V520.72A1.08,1.08,0,0,1,656.89,519.64Z" transform="translate(-573.99 -495.49)" style="fill: #fff"/>
    <path d="M665.49,528.27c0-5.27,4-9.07,9.51-9.07s9.48,3.78,9.48,9.07-4,9.07-9.48,9.07S665.49,533.55,665.49,528.27Zm9.51,4.64a4.64,4.64,0,1,0-4.56-4.64,4.43,4.43,0,0,0,4.56,4.64Z" transform="translate(-573.99 -495.49)" style="fill: #fff"/>
    <path d="M700.29,533.62v2.21a1.07,1.07,0,0,1-1.08,1.07H690.4a1.08,1.08,0,0,1-1.08-1.07V520.72a1.08,1.08,0,0,1,1.08-1.08h2.67a1.07,1.07,0,0,1,1.07,1.08v10.75a1.08,1.08,0,0,0,1.08,1.08h4A1.07,1.07,0,0,1,700.29,533.62Z" transform="translate(-573.99 -495.49)" style="fill: #fff"/>
    <path d="M716.09,533.85v2A1.07,1.07,0,0,1,715,536.9h-9.11a1.07,1.07,0,0,1-1.07-1.07V520.72a1.07,1.07,0,0,1,1.07-1.08h8.9a1.07,1.07,0,0,1,1.07,1.08v1.95a1.07,1.07,0,0,1-1.07,1.08h-4.16a1.08,1.08,0,0,0-1.08,1.08v.39a1.07,1.07,0,0,0,1.08,1.07h3.52a1.07,1.07,0,0,1,1.07,1.08v1.75a1.07,1.07,0,0,1-1.07,1.07h-3.52a1.08,1.08,0,0,0-1.08,1.08v.43a1.08,1.08,0,0,0,1.08,1.08H715A1.07,1.07,0,0,1,716.09,533.85Z" transform="translate(-573.99 -495.49)" style="fill: #fff"/>
    <path d="M733.11,523.92h-2.54a1.08,1.08,0,0,0-1.08,1.08v10.83a1.07,1.07,0,0,1-1.07,1.07h-2.63a1.07,1.07,0,0,1-1.07-1.07V525a1.08,1.08,0,0,0-1.08-1.08H721.1a1.07,1.07,0,0,1-1.07-1.08v-2.12a1.07,1.07,0,0,1,1.07-1.08h12a1.07,1.07,0,0,1,1.07,1.08v2.12A1.07,1.07,0,0,1,733.11,523.92Z" transform="translate(-573.99 -495.49)" style="fill: #fff"/>
  </g>
  <g>
    <g>
      <path d="M574,515.86a23.77,23.77,0,0,0,23.67,21.53,23.77,23.77,0,0,0-21.53-23.67A2,2,0,0,0,574,515.86Z" transform="translate(-573.99 -495.49)" style="fill: #fff"/>
      <path d="M597.67,537.39a23.78,23.78,0,0,0,23.67-21.53,2,2,0,0,0-2.14-2.14A23.77,23.77,0,0,0,597.67,537.39Z" transform="translate(-573.99 -495.49)" style="fill: #fff"/>
    </g>
    <path d="M599.38,519.25l12-20.79a2,2,0,0,0-1.72-3h-24a2,2,0,0,0-1.72,3l12,20.79A2,2,0,0,0,599.38,519.25Z" transform="translate(-573.99 -495.49)" style="fill: #fff"/>
  </g>
</svg>
