<svg xmlns="http://www.w3.org/2000/svg" viewBox="0 0 47.36 41.9">
  <g>
    <g>
      <path d="M574,515.86a23.77,23.77,0,0,0,23.67,21.53,23.77,23.77,0,0,0-21.53-23.67A2,2,0,0,0,574,515.86Z" transform="translate(-573.99 -495.49)" style="fill: #fff"/>
      <path d="M597.67,537.39a23.78,23.78,0,0,0,23.67-21.53,2,2,0,0,0-2.14-2.14A23.77,23.77,0,0,0,597.67,537.39Z" transform="translate(-573.99 -495.49)" style="fill: #fff"/>
    </g>
    <path d="M599.38,519.25l12-20.79a2,2,0,0,0-1.72-3h-24a2,2,0,0,0-1.72,3l12,20.79A2,2,0,0,0,599.38,519.25Z" transform="translate(-573.99 -495.49)" style="fill: #fff"/>
  </g>
</svg>
