<svg xmlns="http://www.w3.org/2000/svg" viewBox="0 0 1430.54 82.9">
  <circle cx="1415.24" cy="41.49" r="11.08" style="fill: none;stroke: #fff;stroke-linecap: round;stroke-linejoin: round;stroke-width: 8.445484334114159px"/>
  <circle cx="15.31" cy="41.49" r="11.08" style="fill: none;stroke: #fff;stroke-linecap: round;stroke-linejoin: round;stroke-width: 8.445484334114159px"/>
  <circle cx="177.31" cy="41.49" r="11.08" style="fill: none;stroke: #fff;stroke-linecap: round;stroke-linejoin: round;stroke-width: 8.445484334114159px"/>
  <circle cx="331.31" cy="41.49" r="11.08" style="fill: none;stroke: #fff;stroke-linecap: round;stroke-linejoin: round;stroke-width: 8.445484334114159px"/>
  <circle cx="485.31" cy="41.49" r="11.08" style="fill: none;stroke: #fff;stroke-linecap: round;stroke-linejoin: round;stroke-width: 8.445484334114159px"/>
  <circle cx="639.31" cy="41.49" r="11.08" style="fill: none;stroke: #fff;stroke-linecap: round;stroke-linejoin: round;stroke-width: 8.445484334114159px"/>
  <circle cx="793.31" cy="41.49" r="11.08" style="fill: none;stroke: #fff;stroke-linecap: round;stroke-linejoin: round;stroke-width: 8.445484334114159px"/>
  <circle cx="947.31" cy="41.49" r="11.08" style="fill: none;stroke: #fff;stroke-linecap: round;stroke-linejoin: round;stroke-width: 8.445484334114159px"/>
  <circle cx="1101.31" cy="41.49" r="11.08" style="fill: none;stroke: #fff;stroke-linecap: round;stroke-linejoin: round;stroke-width: 8.445484334114159px"/>
  <circle cx="1255.31" cy="41.49" r="11.08" style="fill: none;stroke: #fff;stroke-linecap: round;stroke-linejoin: round;stroke-width: 8.445484334114159px"/>
  <g>
    <path d="M1635,575a35,35,0,0,0-33.2,35v.09" transform="translate(-266.71 -533.59)" style="fill: none;stroke: #fff;stroke-linecap: round;stroke-linejoin: round;stroke-width: 12.829929494187411px"/>
    <path d="M1601.72,540A35,35,0,0,0,1635,575c.61,0,39.34,0,40,0h.09" transform="translate(-266.71 -533.59)" style="fill: none;stroke: #fff;stroke-linecap: round;stroke-linejoin: round;stroke-width: 12.829929494187411px"/>
    <path d="M1568.43,575.08a35,35,0,0,0,33.2-35V540" transform="translate(-266.71 -533.59)" style="fill: none;stroke: #fff;stroke-linecap: round;stroke-linejoin: round;stroke-width: 12.829929494187411px"/>
    <path d="M1601.72,610.06a35,35,0,0,0-33.29-35c-.61,0-39.34,0-40,0h-.09" transform="translate(-266.71 -533.59)" style="fill: none;stroke: #fff;stroke-linecap: round;stroke-linejoin: round;stroke-width: 12.829929494187411px"/>
  </g>
  <g>
    <path d="M1480.64,575a35,35,0,0,0-33.2,35v.09" transform="translate(-266.71 -533.59)" style="fill: none;stroke: #fff;stroke-linecap: round;stroke-linejoin: round;stroke-width: 12.829929494187411px"/>
    <path d="M1447.35,540a35,35,0,0,0,33.29,35c.61,0,39.34,0,39.95,0h.09" transform="translate(-266.71 -533.59)" style="fill: none;stroke: #fff;stroke-linecap: round;stroke-linejoin: round;stroke-width: 12.829929494187411px"/>
    <path d="M1414.06,575.08a35,35,0,0,0,33.2-35V540" transform="translate(-266.71 -533.59)" style="fill: none;stroke: #fff;stroke-linecap: round;stroke-linejoin: round;stroke-width: 12.829929494187411px"/>
    <path d="M1447.35,610.06a35,35,0,0,0-33.29-35c-.61,0-39.34,0-40,0H1374" transform="translate(-266.71 -533.59)" style="fill: none;stroke: #fff;stroke-linecap: round;stroke-linejoin: round;stroke-width: 12.829929494187411px"/>
  </g>
  <g>
    <path d="M1326.27,575a35,35,0,0,0-33.2,35v.09" transform="translate(-266.71 -533.59)" style="fill: none;stroke: #fff;stroke-linecap: round;stroke-linejoin: round;stroke-width: 12.829929494187411px"/>
    <path d="M1293,540a35,35,0,0,0,33.29,35c.6,0,39.33,0,40,0h.09" transform="translate(-266.71 -533.59)" style="fill: none;stroke: #fff;stroke-linecap: round;stroke-linejoin: round;stroke-width: 12.829929494187411px"/>
    <path d="M1259.69,575.08a35,35,0,0,0,33.2-35V540" transform="translate(-266.71 -533.59)" style="fill: none;stroke: #fff;stroke-linecap: round;stroke-linejoin: round;stroke-width: 12.829929494187411px"/>
    <path d="M1293,610.06a35,35,0,0,0-33.29-35c-.61,0-39.34,0-40,0h-.09" transform="translate(-266.71 -533.59)" style="fill: none;stroke: #fff;stroke-linecap: round;stroke-linejoin: round;stroke-width: 12.829929494187411px"/>
  </g>
  <g>
    <path d="M1171.9,575a35,35,0,0,0-33.2,35v.09" transform="translate(-266.71 -533.59)" style="fill: none;stroke: #fff;stroke-linecap: round;stroke-linejoin: round;stroke-width: 12.829929494187411px"/>
    <path d="M1138.61,540a35,35,0,0,0,33.29,35c.6,0,39.33,0,39.95,0h.09" transform="translate(-266.71 -533.59)" style="fill: none;stroke: #fff;stroke-linecap: round;stroke-linejoin: round;stroke-width: 12.829929494187411px"/>
    <path d="M1105.32,575.08a35,35,0,0,0,33.2-35V540" transform="translate(-266.71 -533.59)" style="fill: none;stroke: #fff;stroke-linecap: round;stroke-linejoin: round;stroke-width: 12.829929494187411px"/>
    <path d="M1138.61,610.06a35,35,0,0,0-33.29-35c-.61,0-39.34,0-40,0h-.09" transform="translate(-266.71 -533.59)" style="fill: none;stroke: #fff;stroke-linecap: round;stroke-linejoin: round;stroke-width: 12.829929494187411px"/>
  </g>
  <g>
    <path d="M1017.53,575a35,35,0,0,0-33.2,35v.09" transform="translate(-266.71 -533.59)" style="fill: none;stroke: #fff;stroke-linecap: round;stroke-linejoin: round;stroke-width: 12.829929494187411px"/>
    <path d="M984.24,540a35,35,0,0,0,33.29,35c.6,0,39.33,0,40,0h.09" transform="translate(-266.71 -533.59)" style="fill: none;stroke: #fff;stroke-linecap: round;stroke-linejoin: round;stroke-width: 12.829929494187411px"/>
    <path d="M951,575.08a35,35,0,0,0,33.2-35V540" transform="translate(-266.71 -533.59)" style="fill: none;stroke: #fff;stroke-linecap: round;stroke-linejoin: round;stroke-width: 12.829929494187411px"/>
    <path d="M984.24,610.06a35,35,0,0,0-33.29-35c-.61,0-39.34,0-40,0h-.08" transform="translate(-266.71 -533.59)" style="fill: none;stroke: #fff;stroke-linecap: round;stroke-linejoin: round;stroke-width: 12.829929494187411px"/>
  </g>
  <g>
    <path d="M863.16,575A35,35,0,0,0,830,610v.09" transform="translate(-266.71 -533.59)" style="fill: none;stroke: #fff;stroke-linecap: round;stroke-linejoin: round;stroke-width: 12.829929494187411px"/>
    <path d="M829.87,540a35,35,0,0,0,33.29,35c.6,0,39.33,0,40,0h.09" transform="translate(-266.71 -533.59)" style="fill: none;stroke: #fff;stroke-linecap: round;stroke-linejoin: round;stroke-width: 12.829929494187411px"/>
    <path d="M796.58,575.08a35,35,0,0,0,33.2-35V540" transform="translate(-266.71 -533.59)" style="fill: none;stroke: #fff;stroke-linecap: round;stroke-linejoin: round;stroke-width: 12.829929494187411px"/>
    <path d="M829.87,610.06a35,35,0,0,0-33.29-35c-.61,0-39.34,0-40,0h-.09" transform="translate(-266.71 -533.59)" style="fill: none;stroke: #fff;stroke-linecap: round;stroke-linejoin: round;stroke-width: 12.829929494187411px"/>
  </g>
  <g>
    <path d="M708.79,575a35,35,0,0,0-33.2,35v.09" transform="translate(-266.71 -533.59)" style="fill: none;stroke: #fff;stroke-linecap: round;stroke-linejoin: round;stroke-width: 12.829929494187411px"/>
    <path d="M675.49,540a35,35,0,0,0,33.3,35c.6,0,39.33,0,40,0h.09" transform="translate(-266.71 -533.59)" style="fill: none;stroke: #fff;stroke-linecap: round;stroke-linejoin: round;stroke-width: 12.829929494187411px"/>
    <path d="M642.21,575.08a35,35,0,0,0,33.2-35s0-.06,0-.09" transform="translate(-266.71 -533.59)" style="fill: none;stroke: #fff;stroke-linecap: round;stroke-linejoin: round;stroke-width: 12.829929494187411px"/>
    <path d="M675.5,610.06a35,35,0,0,0-33.29-35c-.61,0-39.34,0-40,0h-.09" transform="translate(-266.71 -533.59)" style="fill: none;stroke: #fff;stroke-linecap: round;stroke-linejoin: round;stroke-width: 12.829929494187411px"/>
  </g>
  <g>
    <path d="M554.42,575a35,35,0,0,0-33.21,35s0,.06,0,.09" transform="translate(-266.71 -533.59)" style="fill: none;stroke: #fff;stroke-linecap: round;stroke-linejoin: round;stroke-width: 12.829929494187411px"/>
    <path d="M521.12,540a35,35,0,0,0,33.3,35c.6,0,39.33,0,40,0h.09" transform="translate(-266.71 -533.59)" style="fill: none;stroke: #fff;stroke-linecap: round;stroke-linejoin: round;stroke-width: 12.829929494187411px"/>
    <path d="M487.83,575.08a35.05,35.05,0,0,0,33.21-35s0-.06,0-.09" transform="translate(-266.71 -533.59)" style="fill: none;stroke: #fff;stroke-linecap: round;stroke-linejoin: round;stroke-width: 12.829929494187411px"/>
    <path d="M521.13,610.06a35,35,0,0,0-33.3-35c-.6,0-39.33,0-39.95,0h-.09" transform="translate(-266.71 -533.59)" style="fill: none;stroke: #fff;stroke-linecap: round;stroke-linejoin: round;stroke-width: 12.829929494187411px"/>
  </g>
  <g>
    <path d="M400,575a35,35,0,0,0-33.2,35s0,.06,0,.09" transform="translate(-266.71 -533.59)" style="fill: none;stroke: #fff;stroke-linecap: round;stroke-linejoin: round;stroke-width: 12.829929494187411px"/>
    <path d="M366.75,540A35,35,0,0,0,400,575c.61,0,39.34,0,40,0h.09" transform="translate(-266.71 -533.59)" style="fill: none;stroke: #fff;stroke-linecap: round;stroke-linejoin: round;stroke-width: 12.829929494187411px"/>
    <path d="M333.46,575.08a35,35,0,0,0,33.2-35V540" transform="translate(-266.71 -533.59)" style="fill: none;stroke: #fff;stroke-linecap: round;stroke-linejoin: round;stroke-width: 12.829929494187411px"/>
    <path d="M366.76,610.06a35,35,0,0,0-33.3-35c-.6,0-39.33,0-39.95,0h-.09" transform="translate(-266.71 -533.59)" style="fill: none;stroke: #fff;stroke-linecap: round;stroke-linejoin: round;stroke-width: 12.829929494187411px"/>
  </g>
</svg>
